<svg id="Capa_1" enable-background="new 0 0 512 512" height="512" viewBox="0 0 512 512" width="512" xmlns="http://www.w3.org/2000/svg"><g><g><g><g><g><g><g><circle cx="256" cy="256" fill="#2fddd0" r="256"/></g></g></g></g></g></g><path d="m512 256c0-5.921-.201-11.796-.597-17.616l-156.657-156.657-212.75 348.726 79.201 79.201c11.38 1.547 22.998 2.346 34.803 2.346 141.385 0 256-114.615 256-256z" fill="#11bfae"/><g><path d="m392.151 385.396h-81.923v-232.27h81.923c33.41 0 60.592 27.182 60.592 60.593v111.085c0 33.411-27.181 60.592-60.592 60.592zm-29.922-52h29.923c4.737 0 8.592-3.854 8.592-8.593v-111.084c0-4.738-3.854-8.593-8.592-8.593h-29.923z" fill="#fff4c5"/></g><g><path d="m339.97 440h-176.101c-16.484 0-29.847-13.363-29.847-29.847v-287.313h235.796v287.313c-.001 16.484-13.364 29.847-29.848 29.847z" fill="#ffce00"/></g><g><path d="m250 122.84v317.16h89.97c16.484 0 29.847-13.363 29.847-29.847v-287.313z" fill="#fdba12"/></g><g><g><path d="m203.257 399.71h-7.197c-11.875 0-21.502-9.627-21.502-21.502v-168.098c0-11.875 9.627-21.502 21.502-21.502h7.197c11.875 0 21.502 9.627 21.502 21.502v168.098c.001 11.875-9.626 21.502-21.502 21.502z" fill="#fa0"/></g><g><path d="m307.779 399.71h-7.197c-11.875 0-21.502-9.627-21.502-21.502v-168.098c0-11.875 9.627-21.502 21.502-21.502h7.197c11.875 0 21.502 9.627 21.502 21.502v168.098c0 11.875-9.627 21.502-21.502 21.502z" fill="#ff9500"/></g></g><g><path d="m369.817 122.385c0-34.454-27.931-62.385-62.385-62.385h-111.025c-34.455 0-62.386 27.931-62.386 62.386v92.996c0 9.265 7.12 17.237 16.374 17.673 9.881.465 18.038-7.408 18.038-17.187v-63.146c0-7.682 6.227-13.909 13.909-13.909h71.635c4.36 0 7.895 3.535 7.895 7.895v69.16c0 9.503 7.704 17.206 17.206 17.206 9.503 0 17.206-7.703 17.206-17.206v-69.16c0-4.36 3.535-7.895 7.895-7.895 4.36 0 7.895 3.535 7.895 7.895v42.993c0 9.503 7.703 17.206 17.206 17.206 9.503 0 17.206-7.704 17.206-17.206v-42.993c0-4.36 3.535-7.895 7.895-7.895h15.435v-16.428z" fill="#fff"/></g><g><path d="m307.432 60h-57.4v78.813h3.946c4.36 0 7.895 3.534 7.895 7.895v69.16c0 9.503 7.704 17.206 17.207 17.206 9.503 0 17.206-7.703 17.206-17.206v-69.16c0-4.36 3.534-7.895 7.895-7.895 4.36 0 7.895 3.534 7.895 7.895v42.993c0 9.503 7.703 17.206 17.206 17.206s17.206-7.703 17.206-17.206v-42.993c0-4.36 3.535-7.895 7.895-7.895h15.435v-16.428c-.001-34.454-27.932-62.385-62.386-62.385z" fill="#fcf7ca"/></g></g></svg>